<?xml version="1.0" encoding="iso-8859-1"?>
<!-- Uploaded to: SVG Repo, www.svgrepo.com, Generator: SVG Repo Mixer Tools -->
<!DOCTYPE svg PUBLIC "-//W3C//DTD SVG 1.1//EN" "http://www.w3.org/Graphics/SVG/1.1/DTD/svg11.dtd">
<svg fill="#000000" height="50px" width="50px" version="1.1" id="Capa_1" xmlns="http://www.w3.org/2000/svg" xmlns:xlink="http://www.w3.org/1999/xlink" 
	 viewBox="0 0 185.112 185.112" xml:space="preserve">
<g>
	<path d="M29.026,185.112h127.061c4.143,0,7.5-3.357,7.5-7.5V7.5c0-4.142-3.357-7.5-7.5-7.5H29.026c-4.143,0-7.5,3.358-7.5,7.5
		v170.112C21.526,181.755,24.883,185.112,29.026,185.112z M36.526,15h112.061v155.112H36.526V15z"/>
	<path d="M71.241,41.047h44.721c4.143,0,7.5-3.357,7.5-7.5s-3.357-7.5-7.5-7.5H71.241c-4.143,0-7.5,3.357-7.5,7.5
		S67.098,41.047,71.241,41.047z"/>
	<path d="M131.087,51.047H54.026c-4.143,0-7.5,3.357-7.5,7.5v94.065c0,4.143,3.357,7.5,7.5,7.5h77.061c4.143,0,7.5-3.357,7.5-7.5
		V58.547C138.587,54.404,135.229,51.047,131.087,51.047z M123.587,145.112H61.526V66.047h62.061V145.112z"/>
</g>
</svg>