<svg width="24" height="24" viewBox="0 0 24 24" fill="none" xmlns="http://www.w3.org/2000/svg"> 
<g clip-path="url(#clip0_3_339)"> <rect width="24" height="24" fill="#1A1A1A"/> <path d="M6.5 12.004H22.25" stroke="white" stroke-width="2" stroke-linecap="round" stroke-linejoin="round"/> 
<path d="M18.5 15.754L22.25 12.004L18.5 8.254" stroke="white" stroke-width="2" stroke-linecap="round" stroke-linejoin="round"/>
<path d="M15.75 16.5V21C15.7671 21.3796 15.6333 21.7505 15.3776 22.0316C15.122 22.3127 14.7655 22.4811 14.386 22.5H2.11301C1.73372 22.4808 1.37743 22.3123 1.12203 22.0312C0.86663 21.7501 0.732879 21.3794 0.750014 21V3C0.732613 2.62054 0.866271 2.24964 1.12173 1.96851C1.37718 1.68737 1.73362 1.51891 2.11301 1.5H14.386C14.7655 1.51891 15.122 1.68734 15.3776 1.96845C15.6333 2.24955 15.7671 2.62044 15.75 3V7.5" stroke="white" stroke-width="2" stroke-linecap="round" stroke-linejoin="round"/> </g>
<defs> <clipPath id="clip0_3_339"> <rect width="24" height="24" fill="white"/> </clipPath> </defs>
</svg>
